{
    "asset": {
        "generator": "FBX2glTF v0.9.7",
        "version": "2.0"
    },
    "scene": 0,
    "buffers": [
        {
            "byteLength": 519400,
            "uri": "buffer.bin"
        }
    ],
    "bufferViews": [
        {
            "buffer": 0,
            "byteLength": 4464,
            "byteOffset": 0,
            "target": 34963
        },
        {
            "buffer": 0,
            "byteLength": 5376,
            "byteOffset": 4464,
            "target": 34962
        },
        {
            "buffer": 0,
            "byteLength": 5376,
            "byteOffset": 9840,
            "target": 34962
        },
        {
            "buffer": 0,
            "byteLength": 3584,
            "byteOffset": 15216,
            "target": 34962
        },
        {
            "buffer": 0,
            "byteLength": 3584,
            "byteOffset": 18800,
            "target": 34962
        },
        {
            "buffer": 0,
            "byteLength": 792,
            "byteOffset": 22384,
            "target": 34963
        },
        {
            "buffer": 0,
            "byteLength": 1152,
            "byteOffset": 23176,
            "target": 34962
        },
        {
            "buffer": 0,
            "byteLength": 1152,
            "byteOffset": 24328,
            "target": 34962
        },
        {
            "buffer": 0,
            "byteLength": 768,
            "byteOffset": 25480,
            "target": 34962
        },
        {
            "buffer": 0,
            "byteLength": 768,
            "byteOffset": 26248,
            "target": 34962
        },
        {
            "buffer": 0,
            "byteLength": 87264,
            "byteOffset": 27016,
            "target": 34963
        },
        {
            "buffer": 0,
            "byteLength": 121536,
            "byteOffset": 114280,
            "target": 34962
        },
        {
            "buffer": 0,
            "byteLength": 121536,
            "byteOffset": 235816,
            "target": 34962
        },
        {
            "buffer": 0,
            "byteLength": 81024,
            "byteOffset": 357352,
            "target": 34962
        },
        {
            "buffer": 0,
            "byteLength": 81024,
            "byteOffset": 438376,
            "target": 34962
        }
    ],
    "scenes": [
        {
            "name": "Root Scene",
            "nodes": [
                0
            ]
        }
    ],
    "accessors": [
        {
            "componentType": 5123,
            "type": "SCALAR",
            "count": 2232,
            "bufferView": 0,
            "byteOffset": 0
        },
        {
            "componentType": 5126,
            "type": "VEC3",
            "count": 448,
            "bufferView": 1,
            "byteOffset": 0,
            "min": [
                -0.625,
                -0.299999982118607,
                0.705000042915344
            ],
            "max": [
                0.625,
                0.299999982118607,
                0.730000078678131
            ]
        },
        {
            "componentType": 5126,
            "type": "VEC3",
            "count": 448,
            "bufferView": 2,
            "byteOffset": 0
        },
        {
            "componentType": 5126,
            "type": "VEC2",
            "count": 448,
            "bufferView": 3,
            "byteOffset": 0
        },
        {
            "componentType": 5126,
            "type": "VEC2",
            "count": 448,
            "bufferView": 4,
            "byteOffset": 0
        },
        {
            "componentType": 5123,
            "type": "SCALAR",
            "count": 396,
            "bufferView": 5,
            "byteOffset": 0
        },
        {
            "componentType": 5126,
            "type": "VEC3",
            "count": 96,
            "bufferView": 6,
            "byteOffset": 0,
            "min": [
                -0.625000059604645,
                -0.297499984502792,
                0.706700026988983
            ],
            "max": [
                0.625,
                0.297499984502792,
                0.728300094604492
            ]
        },
        {
            "componentType": 5126,
            "type": "VEC3",
            "count": 96,
            "bufferView": 7,
            "byteOffset": 0
        },
        {
            "componentType": 5126,
            "type": "VEC2",
            "count": 96,
            "bufferView": 8,
            "byteOffset": 0
        },
        {
            "componentType": 5126,
            "type": "VEC2",
            "count": 96,
            "bufferView": 9,
            "byteOffset": 0
        },
        {
            "componentType": 5123,
            "type": "SCALAR",
            "count": 43632,
            "bufferView": 10,
            "byteOffset": 0
        },
        {
            "componentType": 5126,
            "type": "VEC3",
            "count": 10128,
            "bufferView": 11,
            "byteOffset": 0,
            "min": [
                -0.602000057697296,
                -0.284827530384064,
                3.81469703825132e-07
            ],
            "max": [
                0.602000117301941,
                0.284675002098083,
                0.705000340938568
            ]
        },
        {
            "componentType": 5126,
            "type": "VEC3",
            "count": 10128,
            "bufferView": 12,
            "byteOffset": 0
        },
        {
            "componentType": 5126,
            "type": "VEC2",
            "count": 10128,
            "bufferView": 13,
            "byteOffset": 0
        },
        {
            "componentType": 5126,
            "type": "VEC2",
            "count": 10128,
            "bufferView": 14,
            "byteOffset": 0
        }
    ],
    "images": [
        {
            "name": "Vitra_Compas_Direction_mat1_map_1",
            "uri": "data:image/png;base64,"
        },
        {
            "name": "Vitra_Compas_Direction_mat1_map_4",
            "uri": "data:image/png;base64,"
        }
    ],
    "samplers": [
        {}
    ],
    "textures": [
        {
            "name": "Vitra_Compas_Direction_mat1_map_1",
            "sampler": 0,
            "source": 0
        },
        {
            "name": "Vitra_Compas_Direction_mat1_map_4",
            "sampler": 0,
            "source": 1
        }
    ],
    "materials": [
        {
            "name": "Vitra_Compas_Direction_mat1_mtl_3",
            "alphaMode": "OPAQUE",
            "extras": {
                "fromFBX": {
                    "shadingModel": "Phong",
                    "isTruePBR": false
                }
            },
            "pbrMetallicRoughness": {
                "baseColorFactor": [
                    0.0,
                    0.0,
                    0.0,
                    1.0
                ],
                "metallicFactor": 0.400000005960464,
                "roughnessFactor": 0.70710676908493
            }
        },
        {
            "name": "Vitra_Compas_Direction_mat1_mtl_1",
            "alphaMode": "OPAQUE",
            "extras": {
                "fromFBX": {
                    "shadingModel": "Phong",
                    "isTruePBR": false
                }
            },
            "pbrMetallicRoughness": {
                "baseColorTexture": {
                    "index": 0,
                    "texCoord": 0
                },
                "baseColorFactor": [
                    1.0,
                    1.0,
                    1.0,
                    1.0
                ],
                "metallicFactor": 0.400000005960464,
                "roughnessFactor": 0.70710676908493
            }
        },
        {
            "name": "Vitra_Compas_Direction_mat1_mtl_2",
            "alphaMode": "OPAQUE",
            "extras": {
                "fromFBX": {
                    "shadingModel": "Phong",
                    "isTruePBR": false
                }
            },
            "pbrMetallicRoughness": {
                "baseColorTexture": {
                    "index": 1,
                    "texCoord": 0
                },
                "baseColorFactor": [
                    1.0,
                    1.0,
                    1.0,
                    1.0
                ],
                "metallicFactor": 0.400000005960464,
                "roughnessFactor": 0.70710676908493
            }
        }
    ],
    "meshes": [
        {
            "name": "Vitra_Compas_Direction_mat1",
            "primitives": [
                {
                    "material": 1,
                    "mode": 4,
                    "attributes": {
                        "NORMAL": 2,
                        "POSITION": 1,
                        "TEXCOORD_0": 3,
                        "TEXCOORD_1": 4
                    },
                    "indices": 0
                },
                {
                    "material": 2,
                    "mode": 4,
                    "attributes": {
                        "NORMAL": 7,
                        "POSITION": 6,
                        "TEXCOORD_0": 8,
                        "TEXCOORD_1": 9
                    },
                    "indices": 5
                },
                {
                    "material": 0,
                    "mode": 4,
                    "attributes": {
                        "NORMAL": 12,
                        "POSITION": 11,
                        "TEXCOORD_0": 13,
                        "TEXCOORD_1": 14
                    },
                    "indices": 10
                }
            ]
        }
    ],
    "nodes": [
        {
            "name": "RootNode",
            "translation": [
                0.0,
                0.0,
                0.0
            ],
            "rotation": [
                0.0,
                0.0,
                0.0,
                1.0
            ],
            "scale": [
                1.0,
                1.0,
                1.0
            ],
            "children": [
                1
            ]
        },
        {
            "name": "Vitra_Compas_Direction_mat1",
            "translation": [
                0.0,
                -4.11431422264741e-08,
                0.0
            ],
            "rotation": [
                -0.70710676908493,
                -0.0,
                0.0,
                0.70710676908493
            ],
            "scale": [
                1.0,
                1.0,
                1.0
            ],
            "mesh": 0
        }
    ]
}